PathFileType	4	(X/Y/Z)	Run_500 01
DataRate	CameraRate	NumFrames	NumMarkers	Units	OrigDataRate	OrigDataStartFrame	OrigNumFrames
120	120	4	42	mm	120	3	128
Frame#	Time	LASI			RASI			LPSI			RPSI			RTH1			RTH2			RTH3			LTH1			LTH2			LTH3			RTB1			RTB2			LTB1			LTB2			LTB3			RCAL			RTOE			RMT5			LCAL			LTOE			LMT5			LACR			RACR			CLAV			C7			RUA1			RUA2			RUA3			RLEL			LUA1			LUA2			LUA3			LLEL			LMEL			RFAsuperior			RFAradius			RFAulna			LFAsuperior			LFAradius			LFAulna			RMEL			RTB3		
		X1	Y1	Z1	X2	Y2	Z2	X3	Y3	Z3	X4	Y4	Z4	X5	Y5	Z5	X6	Y6	Z6	X7	Y7	Z7	X8	Y8	Z8	X9	Y9	Z9	X10	Y10	Z10	X11	Y11	Z11	X12	Y12	Z12	X13	Y13	Z13	X14	Y14	Z14	X15	Y15	Z15	X16	Y16	Z16	X17	Y17	Z17	X18	Y18	Z18	X19	Y19	Z19	X20	Y20	Z20	X21	Y21	Z21	X22	Y22	Z22	X23	Y23	Z23	X24	Y24	Z24	X25	Y25	Z25	X26	Y26	Z26	X27	Y27	Z27	X28	Y28	Z28	X29	Y29	Z29	X30	Y30	Z30	X31	Y31	Z31	X32	Y32	Z32	X33	Y33	Z33	X34	Y34	Z34	X35	Y35	Z35	X36	Y36	Z36	X37	Y37	Z37	X38	Y38	Z38	X39	Y39	Z39	X40	Y40	Z40	X41	Y41	Z41	X42	Y42	Z42	

3	  0.025000	1154.676479	978.342531	-427.168769	1162.569671	988.904445	-189.873580	990.941155	1025.672632	-351.607518	994.942180	1027.048554	-254.432867	1162.587896	850.664924	-124.806641	1323.441341	796.230854	-142.873393	1335.101309	697.138334	-147.755243	1059.305346	815.750043	-470.897333	1127.808253	705.349025	-458.648277	1040.267637	588.490386	-433.839891	1331.349346	530.049643	-212.229459	1248.223102	552.900459	-161.435681	1022.465566	349.418147	-357.575244	936.784343	287.229903	-399.402844	901.714317	198.717094	-329.059130	977.016772	505.740486	-264.885183	1058.076628	311.056942	-257.115042	1017.563240	320.117196	-155.889980	729.806276	135.396072	-324.027064	922.606903	 74.945409	-272.759023	911.541758	 38.866675	-378.111238	1176.165191	1449.759029	-524.254683	1141.142620	1474.557314	-159.128524	1227.262973	1413.773823	-304.176823	1117.604737	1498.798456	-354.965770	1087.004843	1415.297333	-114.071098	1058.676919	1333.435962	-120.116962	979.705954	1364.884386	-137.603650	901.517533	1285.428837	-105.339599	1154.641685	1364.637858	-571.984213	1094.567985	1303.395397	-555.766894	1159.430339	1261.165519	-592.982387	1110.014380	1152.948473	-624.731810	1067.957706	1140.295827	-562.683558	937.193095	1208.105117	-59.683439	955.058912	1026.084332	-25.770936	892.027805	1022.538930	-54.002012	1189.714946	1175.322229	-598.983808	1317.187371	1232.152228	-475.520219	1342.187753	1169.736016	-476.707069	908.384711	1267.920083	-168.758731	1159.359760	465.241708	-222.720030	
4	  0.033333	1157.824865	981.835657	-426.440982	1163.353438	996.474775	-190.072003	994.217504	1030.745726	-353.708207	995.980932	1033.662881	-256.879008	1165.496238	861.603401	-122.974995	1325.803847	810.286112	-143.355002	1340.171889	710.885771	-149.378337	1058.649624	819.897573	-471.668577	1118.962929	707.416537	-456.228487	1022.124149	597.100980	-433.271518	1349.666793	536.150843	-211.936222	1264.275871	549.861141	-162.208238	994.360293	357.591524	-360.314117	906.581948	298.443917	-403.045207	870.419818	209.581832	-332.688173	1001.837062	470.111538	-265.550652	1106.580524	287.896426	-257.734702	1062.884203	291.271938	-156.177474	697.843738	153.339469	-327.528896	882.602252	 75.827897	-272.598935	867.945302	 38.826494	-378.145605	1179.760001	1459.300651	-521.685573	1136.331673	1481.516531	-158.739264	1225.765679	1421.477615	-301.228237	1116.965256	1505.164989	-354.600973	1080.914243	1424.137992	-115.242822	1052.465914	1342.326882	-120.308184	974.181475	1373.176711	-141.317152	894.146198	1294.790951	-112.153621	1162.044900	1373.252666	-569.955298	1102.228202	1311.705164	-555.640456	1169.395403	1270.221440	-590.126698	1123.012739	1159.811492	-621.592783	1079.439434	1147.273339	-560.051830	927.563277	1218.867253	-63.155223	946.155464	1037.387763	-25.539753	885.034376	1032.031277	-56.866954	1200.916925	1187.113799	-594.770857	1318.913601	1256.903282	-468.499539	1348.803087	1196.727409	-467.586639	904.290933	1275.770090	-174.607405	1186.623310	451.696353	-223.227599	
5	  0.041667	1161.619669	985.280985	-425.522273	1164.087121	1004.450595	-189.926554	997.970026	1036.162831	-356.308755	997.181462	1040.602906	-259.640596	1168.016690	872.530600	-121.310306	1327.889145	823.499679	-144.039932	1343.992625	723.778613	-150.793977	1058.306099	824.301442	-472.603130	1110.225165	710.166905	-453.866350	1005.128147	606.225595	-433.474430	1367.048121	541.548289	-211.184919	1280.055123	546.205836	-162.912320	967.043930	366.940499	-363.265504	877.621010	310.263935	-406.916038	841.338978	220.675038	-336.800253	1028.720829	435.072367	-266.063173	1155.566358	266.594393	-258.199231	1109.535256	263.785553	-156.926941	668.804289	171.860891	-330.960901	843.502175	 76.602721	-272.871399	825.138548	 39.324349	-378.706736	1183.412019	1468.875380	-519.015907	1131.487031	1488.555013	-158.429639	1224.259328	1429.458276	-298.121309	1116.439628	1511.685974	-354.145296	1075.036316	1432.913994	-116.277065	1046.498871	1351.148754	-120.543061	968.879723	1381.600355	-144.522247	887.231287	1304.112701	-118.418524	1169.290013	1382.251858	-567.906625	1109.925789	1320.457970	-555.848192	1178.915305	1279.671101	-587.160686	1135.223109	1167.252243	-618.582499	1089.937960	1154.824589	-557.799377	918.611558	1229.426786	-66.651498	937.933138	1048.327221	-25.900446	878.283889	1041.596011	-59.605047	1211.145400	1199.293915	-590.644373	1319.322868	1281.028717	-461.919703	1353.701365	1223.176547	-458.934162	900.156318	1284.175206	-180.198177	1214.381707	438.369573	-223.539923	
6	  0.050000	1166.302676	988.575407	-424.144452	1164.760905	1012.885036	-189.307413	1002.388220	1042.088943	-359.654713	998.714551	1047.928273	-262.893152	1169.904737	883.474416	-120.101260	1329.412023	835.188250	-144.953094	1345.795158	735.054599	-151.984045	1058.330619	829.136993	-473.814069	1101.729882	713.883029	-451.604118	989.932792	616.171858	-434.743801	1382.930282	545.871996	-210.392117	1295.496997	541.469803	-163.396469	941.323414	378.108767	-366.492166	850.923446	322.956227	-411.009941	815.803254	232.112889	-341.489052	1058.826176	401.164983	-266.127461	1205.205652	248.335445	-258.639658	1158.360813	238.706036	-158.441976	644.648299	191.345858	-334.440780	806.203276	 77.698017	-273.857723	783.952370	 41.020094	-379.920155	1187.130809	1478.410717	-516.147520	1126.635827	1495.590442	-158.247647	1222.742737	1437.705883	-294.784919	1116.113602	1518.342274	-353.569277	1069.483626	1441.512424	-117.119880	1040.883529	1359.769486	-120.872936	963.922990	1390.174967	-147.011027	881.002587	1313.331829	-123.800470	1176.237938	1391.786326	-565.821069	1117.457725	1329.818216	-556.459658	1187.670661	1289.631623	-584.089545	1146.200824	1175.460663	-615.796701	1098.962301	1163.080810	-556.161147	910.768927	1239.604118	-70.148867	930.832757	1058.692174	-27.071742	872.049065	1051.138252	-62.182015	1219.860237	1211.949633	-586.715686	1317.722564	1304.021361	-456.107506	1355.923016	1248.613680	-451.058658	895.939256	1293.318389	-185.323638	1242.871948	425.492296	-223.549700	
